<?xml version="1.0" encoding="utf-8"?>
<!-- Generator: Adobe Illustrator 16.0.0, SVG Export Plug-In . SVG Version: 6.00 Build 0)  -->
<!DOCTYPE svg PUBLIC "-//W3C//DTD SVG 1.1//EN" "http://www.w3.org/Graphics/SVG/1.1/DTD/svg11.dtd">
<svg version="1.1" id="Capa_1" xmlns="http://www.w3.org/2000/svg" xmlns:xlink="http://www.w3.org/1999/xlink" x="0px" y="0px"
	 width="100px" height="100px" viewBox="0 0 100 100" enable-background="new 0 0 100 100" xml:space="preserve">
<g>
	<path fill-rule="evenodd" clip-rule="evenodd" fill="#030304" d="M69.121,76.32c-6.048,0-12.097,0-18.145,0
		c-0.61,0-0.61,0-0.61-0.589c0-3.83,0-7.659,0-11.488c0-0.081,0.003-0.163-0.002-0.244c-0.01-0.154,0.06-0.225,0.214-0.219
		c0.108,0.003,0.216,0,0.325,0c12.192-0.001,24.384,0,36.576-0.001c0.568,0,0.489-0.012,0.489,0.471c0,3.87,0,7.74,0,11.61
		c0,0.08-0.003,0.162,0.001,0.243c0.01,0.154-0.058,0.226-0.214,0.217c-0.108-0.005-0.217,0-0.325,0
		C81.327,76.32,75.225,76.32,69.121,76.32z"/>
	<path fill-rule="evenodd" clip-rule="evenodd" fill="#08080A" d="M50.368,38.48c0.007,0.091-0.058,0.115-0.127,0.119
		c-0.121,0.006-0.243,0.004-0.365,0.004c-3.855,0-7.71,0-11.565,0.001c-0.516,0-0.455-0.043-0.455,0.455
		c-0.002,3.923-0.001,7.846-0.001,11.769c0,0.081-0.002,0.162,0.002,0.244c0.008,0.137-0.055,0.198-0.19,0.196
		c-0.108-0.001-0.216,0.002-0.325,0.002c-3.869,0-7.737,0-11.606,0c-0.095,0-0.19,0.01-0.284-0.002
		c-0.227-0.028-0.283,0.087-0.264,0.285c0.008,0.079,0.002,0.161,0.002,0.243c0,3.869,0,7.737-0.005,11.605
		c0,0.126,0.095,0.3-0.11,0.372c0-4.167,0-8.334,0-12.502c0.163-0.106,0.09-0.271,0.09-0.408c0.005-1.731,0.004-3.461,0.004-5.193
		c0-2.204,0-4.408,0-6.612c0-0.095,0.001-0.189-0.001-0.284c-0.004-0.138,0.064-0.196,0.197-0.194c0.108,0.001,0.217,0,0.325,0
		c3.908,0,7.816,0.001,11.724-0.004c0.148,0,0.329,0.087,0.444-0.095C42.028,38.48,46.198,38.48,50.368,38.48z"/>
	<path fill-rule="evenodd" clip-rule="evenodd" fill="#030304" d="M37.741,26.05c-0.134,0.007-0.268,0.02-0.403,0.021
		c-3.905,0.001-7.811,0-11.716,0c-0.081,0-0.162-0.003-0.243,0.001c-0.156,0.008-0.222-0.065-0.21-0.219
		c0.005-0.067,0.001-0.135,0.001-0.203c0-3.906,0-7.811,0.002-11.716c0-0.129-0.049-0.271,0.055-0.387c0,0-0.01,0.006-0.01,0.006
		c0.108-0.005,0.215-0.016,0.323-0.016c3.946-0.001,7.893-0.001,11.84,0c0.121,0,0.241,0.016,0.361,0.024
		C37.741,17.724,37.741,21.887,37.741,26.05z"/>
	<path fill-rule="evenodd" clip-rule="evenodd" fill="#030304" d="M50.368,38.48c-4.17,0-8.34,0-12.51,0
		c-0.008-0.134-0.022-0.269-0.022-0.403c-0.001-3.87-0.001-7.74,0.002-11.61c0-0.144-0.05-0.298,0.047-0.433
		c0,0-0.014,0.011-0.014,0.011c0.149,0.004,0.297,0.012,0.446,0.012c3.856,0,7.711,0,11.567,0c0.095,0,0.189,0.004,0.284,0
		c0.15-0.007,0.232,0.05,0.221,0.21c-0.003,0.054,0,0.108,0,0.163c0,3.937,0,7.874-0.001,11.81
		C50.388,38.32,50.375,38.4,50.368,38.48z"/>
	<path fill-rule="evenodd" clip-rule="evenodd" fill="#030304" d="M25.075,51.271c0,4.168,0,8.335,0,12.502
		c-0.121,0.009-0.241,0.023-0.361,0.023c-3.865,0.003-7.73,0.003-11.595,0c-0.132,0-0.271,0.037-0.396-0.041
		c-0.009-0.011-0.021-0.018-0.035-0.021c-0.079-0.124-0.039-0.264-0.039-0.396c-0.002-3.88-0.002-7.761-0.002-11.641
		c0-0.465-0.064-0.452,0.465-0.452c3.853,0.001,7.707,0,11.56,0.001C24.807,51.247,24.944,51.225,25.075,51.271z"/>
	<path fill-rule="evenodd" clip-rule="evenodd" fill="#030304" d="M12.682,13.476c-0.059-0.101-0.033-0.211-0.033-0.317
		c-0.002-3.916-0.002-7.831-0.001-11.746c0-0.093,0.013-0.188,0.02-0.281c3.986,0,7.971,0,11.958,0c0.447,0,0.447,0.001,0.45,0.439
		c0,0.026,0,0.054,0,0.081c0,3.959,0,7.918,0,11.876c-0.121,0.007-0.241,0.021-0.362,0.021c-3.861,0.001-7.722,0.001-11.583-0.001
		c-0.133,0-0.27,0.028-0.399-0.03C12.721,13.497,12.705,13.482,12.682,13.476z"/>
	<path fill-rule="evenodd" clip-rule="evenodd" fill="#08080A" d="M28.999,98.589c-0.729,0-1.391-0.004-2.051,0.002
		c-0.164,0.001-0.195-0.118-0.248-0.224c-0.243-0.481-0.482-0.966-0.726-1.447c-0.378-0.745-0.767-1.486-1.133-2.237
		c-0.095-0.195-0.196-0.272-0.422-0.272c-2.651,0.01-5.303,0.01-7.955,0.001c-0.219,0-0.315,0.063-0.415,0.271
		c-0.586,1.229-1.197,2.447-1.804,3.667c-0.05,0.101-0.073,0.241-0.237,0.24c-0.659-0.001-1.318,0-1.96,0
		c-0.054-0.134,0.018-0.196,0.05-0.262c0.765-1.563,1.534-3.123,2.3-4.685c1.045-2.13,2.087-4.261,3.132-6.391
		c0.646-1.32,1.301-2.636,1.935-3.962c0.118-0.247,0.253-0.34,0.522-0.318c0.323,0.026,0.65,0.024,0.973,0
		c0.245-0.018,0.355,0.083,0.458,0.293c0.914,1.863,1.838,3.724,2.761,5.583c1.091,2.198,2.186,4.396,3.275,6.596
		C27.963,96.469,28.464,97.498,28.999,98.589z M20.443,85.776c-1.136,2.294-2.228,4.499-3.33,6.725c2.245,0,4.446,0,6.693,0
		C22.687,90.262,21.587,88.063,20.443,85.776z"/>
	<path fill-rule="evenodd" clip-rule="evenodd" fill="#08080A" d="M80.137,98.999c-2.135,0.011-3.898-0.503-5.405-1.765
		c-1.497-1.251-2.424-2.839-2.741-4.77c-0.253-1.539-0.182-3.061,0.312-4.546c0.617-1.859,1.804-3.27,3.481-4.256
		c1.449-0.853,3.038-1.113,4.705-1.021c1.533,0.084,2.933,0.545,4.195,1.414c0.799,0.55,1.458,1.237,1.991,2.049
		c0.089,0.136,0.104,0.223-0.045,0.326c-0.455,0.314-0.901,0.64-1.352,0.963c-0.175,0.125-0.223-0.002-0.295-0.129
		c-0.467-0.815-1.119-1.45-1.925-1.926c-1.038-0.614-2.173-0.866-3.37-0.824c-1.289,0.045-2.47,0.425-3.475,1.251
		c-1.405,1.155-2.142,2.654-2.275,4.474c-0.065,0.901,0.015,1.775,0.265,2.634c0.695,2.382,2.843,4.222,5.585,4.237
		c1.159,0.007,2.246-0.225,3.246-0.821c0.951-0.565,1.665-1.36,2.23-2.299c0.027-0.047,0.062-0.089,0.086-0.138
		c0.18-0.36,0.206-0.298,0.465-0.107c0.369,0.271,0.74,0.54,1.106,0.815c0.24,0.181,0.246,0.188,0.094,0.457
		c-0.742,1.313-1.763,2.345-3.101,3.053C82.672,98.728,81.344,99.021,80.137,98.999z"/>
	<path fill-rule="evenodd" clip-rule="evenodd" fill="#08080A" d="M40.376,93.318c1.105,1.75,2.19,3.469,3.273,5.184
		c-0.071,0.127-0.175,0.083-0.259,0.084c-0.5,0.005-1-0.006-1.501,0.006c-0.222,0.005-0.359-0.055-0.488-0.258
		c-1.014-1.593-2.051-3.172-3.066-4.764c-0.127-0.2-0.257-0.266-0.485-0.264c-1.501,0.009-3.002,0.003-4.503,0.004
		c-0.366,0.002-0.369,0.004-0.369,0.382c0,1.516,0,3.03,0,4.544c0,0.382,0.029,0.353-0.348,0.353c-0.459,0-0.92-0.009-1.379,0.004
		c-0.2,0.005-0.251-0.068-0.248-0.26c0.01-0.635,0.004-1.271,0.004-1.906c0-3.15,0-6.302,0-9.452c0-0.095,0.004-0.189,0-0.284
		c-0.006-0.12,0.048-0.173,0.167-0.17c0.095,0.003,0.189,0,0.284,0c2.664,0,5.328-0.005,7.992,0.002
		c0.859,0.002,1.693,0.139,2.435,0.612c0.893,0.571,1.368,1.39,1.402,2.451c0.016,0.511,0.02,1.02-0.178,1.514
		c-0.437,1.092-1.225,1.78-2.348,2.101c-0.078,0.022-0.157,0.038-0.235,0.061C40.488,93.271,40.45,93.29,40.376,93.318z
		 M36.417,91.503c0.987,0,1.974-0.004,2.961,0.004c0.274,0.002,0.54-0.036,0.8-0.104c0.65-0.171,1.082-0.695,1.108-1.331
		c0.035-0.843-0.282-1.343-1.008-1.599c-0.257-0.091-0.521-0.142-0.79-0.143c-2.083-0.004-4.166,0-6.248-0.008
		c-0.218,0-0.271,0.075-0.268,0.281c0.01,0.864,0.003,1.73,0.005,2.596c0.001,0.299,0.005,0.303,0.316,0.304
		C34.335,91.504,35.376,91.503,36.417,91.503z"/>
	<path fill-rule="evenodd" clip-rule="evenodd" fill="#08080A" d="M58.287,92.537c0-1.893,0-3.787,0.001-5.681
		c0-0.331,0.003-0.336,0.323-0.336c3.584-0.001,7.169,0,10.753-0.001c0.324,0,0.313-0.011,0.313,0.307
		c-0.002,0.419-0.01,0.838,0.003,1.257c0.007,0.202-0.069,0.27-0.26,0.246c-0.079-0.01-0.161-0.002-0.243-0.002
		c-2.826,0-5.653,0-8.48,0.001c-0.496,0-0.436-0.05-0.438,0.425c-0.003,0.703-0.002,1.407,0,2.11
		c0.001,0.422-0.053,0.396,0.386,0.396c1.758,0,3.517,0,5.274,0c0.082,0,0.164,0.011,0.243-0.002
		c0.225-0.034,0.275,0.074,0.271,0.276c-0.012,0.379-0.003,0.757-0.005,1.136c-0.002,0.442,0.045,0.396-0.382,0.396
		c-1.096,0.002-2.191,0.001-3.286,0.001c-0.73,0-1.462-0.002-2.192,0.001c-0.303,0.001-0.308,0.007-0.309,0.318
		c-0.003,1.028-0.002,2.057,0,3.084c0.001,0.305,0.005,0.309,0.31,0.309c1.813,0.003,3.624,0.001,5.438,0.001
		c1.258,0,2.516-0.001,3.773,0.002c0.401,0,0.385-0.059,0.385,0.397c0,0.393-0.008,0.784,0.003,1.177
		c0.004,0.172-0.046,0.256-0.228,0.233c-0.067-0.008-0.136-0.001-0.203-0.001c-3.666,0-7.331,0.001-10.996-0.001
		c-0.533,0-0.451,0.052-0.451-0.451C58.286,96.271,58.287,94.404,58.287,92.537z"/>
	<path fill-rule="evenodd" clip-rule="evenodd" fill="#08080A" d="M50.508,86.521c1.839,0,3.679,0,5.519,0
		c0.095,0,0.19,0.006,0.283-0.001c0.152-0.013,0.219,0.039,0.217,0.203c-0.009,0.445-0.006,0.892-0.003,1.339
		c0.001,0.138-0.055,0.188-0.192,0.187c-0.352-0.006-0.704-0.002-1.056-0.002c-1.149,0-2.299-0.001-3.448,0.001
		c-0.415,0-0.368-0.048-0.368,0.364c-0.001,3.164-0.001,6.329-0.001,9.494c0,0.483,0,0.483-0.502,0.483c-0.365,0-0.73-0.001-1.095,0
		c-0.397,0.002-0.341-0.009-0.341-0.361c-0.001-0.378,0-0.757,0-1.135c0-2.801,0-5.601,0-8.4c0-0.095-0.005-0.188,0-0.283
		c0.007-0.121-0.046-0.171-0.166-0.164c-0.095,0.005-0.189,0.001-0.284,0.001c-1.434,0-2.868,0.001-4.302,0
		c-0.309-0.001-0.312-0.004-0.314-0.305c-0.003-0.393,0.009-0.785-0.005-1.177c-0.007-0.201,0.066-0.252,0.256-0.249
		c0.568,0.011,1.136,0.005,1.704,0.005C47.775,86.521,49.142,86.521,50.508,86.521z"/>
	<path fill-rule="evenodd" clip-rule="evenodd" fill="#08080A" d="M25.075,13.529c0-3.958,0-7.917,0-11.876c0-0.027,0-0.054,0-0.081
		c-0.002-0.438-0.002-0.439-0.45-0.439c-3.986,0-7.972,0-11.958,0c-0.008-0.062,0.016-0.11,0.078-0.117
		c0.107-0.011,0.215-0.014,0.323-0.015c3.892,0,7.785,0,11.678-0.001c0.52,0,0.444,0.013,0.444,0.432c0,3.893,0,7.786,0.001,11.679
		c0,0.147-0.021,0.297,0.025,0.443c0,0,0.01-0.006,0.01-0.006C25.176,13.541,25.125,13.535,25.075,13.529z"/>
	<path fill-rule="evenodd" clip-rule="evenodd" fill="#08080A" d="M37.872,26.045c0,0,0.013-0.011,0.014-0.011
		c-0.045,0.032-0.093,0.037-0.145,0.016c0-4.163,0-8.326,0-12.489c0.063-0.005,0.106,0.023,0.11,0.085
		c0.006,0.107,0.004,0.215,0.004,0.323c0,3.904,0,7.809,0,11.713C37.856,25.803,37.867,25.924,37.872,26.045z"/>
	<path fill-rule="evenodd" clip-rule="evenodd" fill="#08080A" d="M12.682,13.476c0.023,0.006,0.039,0.021,0.048,0.042
		C12.684,13.538,12.67,13.521,12.682,13.476z"/>
	<path fill-rule="evenodd" clip-rule="evenodd" fill="#08080A" d="M12.689,63.734c0.014,0.004,0.025,0.011,0.035,0.021
		C12.684,63.795,12.684,63.769,12.689,63.734z"/>
</g>
</svg>
