<?xml version="1.0" encoding="utf-8"?>
<!-- Generator: Adobe Illustrator 16.0.0, SVG Export Plug-In . SVG Version: 6.00 Build 0)  -->
<!DOCTYPE svg PUBLIC "-//W3C//DTD SVG 1.1//EN" "http://www.w3.org/Graphics/SVG/1.1/DTD/svg11.dtd">
<svg version="1.1" id="Capa_1" xmlns="http://www.w3.org/2000/svg" xmlns:xlink="http://www.w3.org/1999/xlink" x="0px" y="0px"
	 width="24px" height="24px" viewBox="0 0 24 24" enable-background="new 0 0 24 24" xml:space="preserve">
<path fill="#FFFFFF" d="M5,20.5c-1.93,0-3.5-1.57-3.5-3.5s1.57-3.5,3.5-3.5s3.5,1.57,3.5,3.5S6.93,20.5,5,20.5 M5,12
	c-2.76,0-5,2.24-5,5s2.24,5,5,5s5-2.24,5-5S7.76,12,5,12 M14.8,10H19V8.2h-3.2l-1.94-3.27C13.57,4.43,13,4.1,12.4,4.1
	c-0.47,0-0.9,0.19-1.2,0.5L7.5,8.29C7.19,8.6,7,9,7,9.5c0,0.63,0.33,1.16,0.85,1.47L11.2,13v5H13v-6.5l-2.25-1.65l2.32-2.35
	 M19,20.5c-1.93,0-3.5-1.57-3.5-3.5s1.57-3.5,3.5-3.5s3.5,1.57,3.5,3.5S20.93,20.5,19,20.5 M19,12c-2.76,0-5,2.24-5,5s2.24,5,5,5
	s5-2.24,5-5S21.76,12,19,12 M16,4.8c1,0,1.8-0.8,1.8-1.8S17,1.2,16,1.2S14.2,2,14.2,3S15,4.8,16,4.8z"/>
</svg>
