<?xml version="1.0" encoding="utf-8"?>
<!-- Generator: Adobe Illustrator 16.0.0, SVG Export Plug-In . SVG Version: 6.00 Build 0)  -->
<!DOCTYPE svg PUBLIC "-//W3C//DTD SVG 1.1//EN" "http://www.w3.org/Graphics/SVG/1.1/DTD/svg11.dtd">
<svg version="1.1" id="Capa_1" xmlns="http://www.w3.org/2000/svg" xmlns:xlink="http://www.w3.org/1999/xlink" x="0px" y="0px"
	 width="24px" height="24px" viewBox="0 0 24 24" enable-background="new 0 0 24 24" xml:space="preserve">
<path fill="#FF1744" d="M9,22c-0.55,0-1-0.45-1-1v-3H4c-1.1,0-2-0.9-2-2V4c0-1.11,0.9-2,2-2h16c1.1,0,2,0.9,2,2v12c0,1.1-0.9,2-2,2
	h-6.1l-3.7,3.71C10,21.9,9.75,22,9.5,22l0,0H9 M10,16v3.08L13.08,16H20V4H4v12H10 M13,10h-2V6h2V10 M13,14h-2v-2h2V14z"/>
</svg>
