<?xml version="1.0" encoding="utf-8"?>
<!-- Generator: Adobe Illustrator 16.0.0, SVG Export Plug-In . SVG Version: 6.00 Build 0)  -->
<!DOCTYPE svg PUBLIC "-//W3C//DTD SVG 1.1//EN" "http://www.w3.org/Graphics/SVG/1.1/DTD/svg11.dtd">
<svg version="1.1" xmlns="http://www.w3.org/2000/svg" xmlns:xlink="http://www.w3.org/1999/xlink" x="0px" y="0px" width="612px"
	 height="792px" viewBox="0 0 612 792" enable-background="new 0 0 612 792" xml:space="preserve">
<g id="Layer_1">
</g>
<g id="_x30_">
	<path d="M305.577,104.541C138.533,104.541,3.118,239.957,3.118,407c0,167.044,135.416,302.459,302.459,302.459
		S608.036,574.044,608.036,407C608.036,239.957,472.62,104.541,305.577,104.541z M428.345,666.812l-9.545-75.136l0.688-16.143
		l-5.153-21.292l-1.376-25.069l7.216-23.355l-3.436-32.969l4.557,33.08l-7.222,23.379l1.358,24.771l5.166,21.349l-0.268,6.276
		l7.942,3.174l30.232,8.243l1.029,9.959l5.497,10.991l16.49-3.437l12.369-15.454l0.345-12.02l-6.185-3.778v-3.434l-7.902-5.838
		l-11.682,4.121l-10.306-12.363l-21.987-9.272l3.777-9.618l-1.717-18.2l-6.46-22.922l3.093-12.021l-2.708-16.639l-16.149-15.456
		l-27.484-10.646l-2.749-19.575l6.529-10.304l7.901-9.615l1.719-18.203l-5.155-24.041l-12.711-9.616l-23.362,1.029l-14.428,8.931
		v8.587l-4.468,7.555l-1.717,25.414l6.525,7.898l-6.525,11.333l-7.558-6.523l-11.682-0.688l-2.748-5.15l-2.543-11.68l-14.577-23.656
		l-6.738-5.497l3.436-6.867l4.616-9.616l0.734-17.859l-2.7-25.956l3.78-16.486l3.78-1.717l9.618-6.526l2.063-12.02l-9.964-4.463
		l-6.185-6.182h-6.87l-14.774,2.746l-6.185,11.676l3.436,9.274l3.436,4.807l-2.404,4.809l0.688,6.867l-5.894,17.518l-8.439,32.136
		l-0.341,29.193l2.061,4.463l3.928,16.791l4.124,13.395l4.122,13.393l7.904,14.425l16.832,16.142l5.331,26.724l11.911,29.932
		l8.166,9.866l0.681,14.284l3.744,11.906l-3.744,12.586l-2.041,19.05l-9.921,48.052l1.72,18.202l-9.343,40.457
		c-113.283,2.354-217.372-62.081-265.78-164.526c-67.803-143.491-6.447-314.777,137.043-382.581
		c143.49-67.803,314.777-6.446,382.58,137.044C633.191,427.722,571.835,599.009,428.345,666.812z"/>
	<g id="LWPOLYLINE_1_">

			<rect x="55.486" y="299.264" transform="matrix(-0.3507 -0.9365 0.9365 -0.3507 -127.6949 527.3612)" width="126.959" height="17.365"/>
	</g>
	<g id="LWPOLYLINE_2_">

			<rect x="46.317" y="306.584" transform="matrix(-0.3507 -0.9365 0.9365 -0.3507 -160.9475 518.9412)" width="106.213" height="17.361"/>
	</g>
	<g id="LWPOLYLINE_3_">

			<rect x="38.742" y="313.901" transform="matrix(-0.3507 -0.9365 0.9365 -0.3507 -194.1933 510.53)" width="82.277" height="17.364"/>
	</g>
	<g id="LWPOLYLINE_4_">

			<rect x="428.715" y="299.264" transform="matrix(0.3507 -0.9365 0.9365 0.3507 31.1846 660.8724)" width="126.959" height="17.365"/>
	</g>
	<g id="LWPOLYLINE_5_">

			<rect x="503.054" y="262.158" transform="matrix(-0.9365 -0.3506 0.3506 -0.9365 880.4444 789.9423)" width="17.363" height="106.213"/>
	</g>
	<g id="LWPOLYLINE_6_">

			<rect x="522.595" y="281.447" transform="matrix(-0.9365 -0.3506 0.3506 -0.9365 915.7311 810.9606)" width="17.364" height="82.274"/>
	</g>
	<g id="SPLINE">
		<path d="M614.883,406.793L614.883,406.793z"/>
	</g>
	<g id="LWPOLYLINE_7_">
		<path d="M482.814,300.768c-53.228-16.093-108.399-24.861-163.993-26.063l1.979,0.887l-1.083,6.317
			c54.588,1.274,108.752,9.931,161.018,25.734L482.814,300.768"/>
	</g>
	<g id="LWPOLYLINE_8_">
		<path d="M127.887,300.908c48.413-14.679,98.458-23.303,148.992-25.673l-2.496,4.712l0.945,2.553
			c-49.302,2.465-98.118,10.956-145.357,25.281L127.887,300.908z"/>
	</g>
</g>
</svg>
