<?xml version="1.0" encoding="UTF-8"?>
<!DOCTYPE svg PUBLIC "-//W3C//DTD SVG 1.1//EN" "http://www.w3.org/Graphics/SVG/1.1/DTD/svg11.dtd">
<!-- Creator: CorelDRAW X7 -->
<svg xmlns="http://www.w3.org/2000/svg" xml:space="preserve" width="279.4mm" height="117.5mm" version="1.1" style="shape-rendering:geometricPrecision; text-rendering:geometricPrecision; image-rendering:optimizeQuality; fill-rule:evenodd; clip-rule:evenodd"
viewBox="0 0 27940 11750"
 xmlns:xlink="http://www.w3.org/1999/xlink">
 <defs>
  <style type="text/css">
   <![CDATA[
    .fil0 {fill:black}
    .fil1 {fill:#121212}
   ]]>
  </style>
 </defs>
 <g id="Capa_x0020_1">
  <metadata id="CorelCorpID_0Corel-Layer"/>
  <g id="_815716768">
   <path class="fil0" d="M421 11061l1192 -1055c176,-143 556,-414 752,-538 200,-128 387,-252 599,-369 72,-40 137,-71 208,-114 204,-122 195,-51 195,-205 0,-69 -15,-103 -6,-162 8,-55 10,-109 2,-167 -16,-106 -7,-947 -7,-1095 -220,19 -1428,393 -1672,474 -58,20 -183,70 -240,71l0 -1535 522 -44c210,-11 587,-57 768,-56l433 -33 0 -1135c0,-37 33,-32 -29,-48l-1014 -132c-120,-17 -243,-37 -368,-54l-258 -43c-52,-10 -44,-5 -44,-67 -1,-124 -8,-304 2,-423 20,-253 10,-553 10,-824l892 332c80,22 151,46 230,70 276,85 443,133 724,199 0,-65 11,-92 11,-167l11 -1313c-73,-38 -131,-78 -204,-118 -420,-229 -979,-642 -1356,-946 -63,-51 -114,-97 -176,-147l-852 -794c-30,-30 -54,-52 -83,-83l-242 -259 0 10780z"/>
   <path class="fil0" d="M25804 4130c26,38 24,82 33,145 8,57 17,98 23,155l137 965c29,207 63,434 93,641l46 321c12,110 24,224 46,321 -114,0 -544,-75 -711,-89 12,-27 15,-105 23,-144l45 -300c36,-214 199,-1366 210,-1536 3,-48 13,-115 20,-158l35 -321zm-1745 4628c44,23 80,36 129,59 266,123 530,273 786,416 35,20 95,61 130,70 1,-39 15,-114 19,-148 23,-185 111,-965 136,-1076 118,10 691,269 850,329l284 116c0,75 22,139 23,223l144 1591c98,52 816,709 909,803 42,43 78,88 125,120 0,-399 -13,-617 -53,-992l-60 -641c-11,-103 -23,-213 -32,-324l-69 -632c-12,-96 -20,-202 -35,-310l-657 -4615c-9,-54 -20,-97 -26,-142 -7,-57 -10,-101 -19,-159l-45 -311c-79,-472 -131,-1059 -210,-1547 -17,-108 -16,-220 -39,-317 -24,16 -52,43 -79,65 -331,268 -521,413 -866,658 -193,137 -136,3 -201,566 -21,180 -45,359 -69,543 -5,36 -14,82 -20,125l-159 1064c-80,480 -188,961 -269,1422l-50 251c-9,44 -16,76 -26,129l-189 880c-20,92 -32,168 -53,258 -89,375 -180,883 -257,1267 -9,46 -37,226 -52,259z"/>
   <path class="fil0" d="M22413 3418c0,45 -14,139 -20,180 -12,65 -18,113 -29,182 -19,122 -39,234 -57,355 -38,246 -81,470 -121,713l-262 1396c-2,-3 -3,-10 -3,-8 -1,2 -3,-6 -4,-8l-57 -298c-25,-109 -47,-219 -67,-323 -38,-203 -138,-736 -192,-954l-189 -968c-77,0 -568,95 -657,110 -170,28 -556,62 -677,90 0,1227 12,2505 0,3727 -1,157 -49,110 303,154l531 69 18 -2955c83,343 154,810 238,1153l100 478c54,227 97,503 145,733l115 619c20,124 -32,69 169,121l594 140c12,-26 37,-166 43,-202l425 -2378c6,-31 9,-69 16,-106 8,-38 20,-77 24,-110l72 -440c9,-80 31,-123 31,-224l11 0c0,617 12,1198 12,1813 0,612 0,1224 0,1836l627 229c42,18 59,27 102,42 43,15 68,32 104,40l-11 -4260c0,-488 -11,-939 -11,-1424l-641 260c-111,40 -220,81 -327,117 -64,21 -302,97 -355,101z"/>
   <path class="fil0" d="M3957 8602c22,-11 39,-14 65,-24 267,-101 420,-167 720,-269 50,-17 79,-30 130,-48 47,-15 103,-30 141,-48 0,-869 -11,-1716 -11,-2592 45,12 48,51 89,133 26,52 51,96 78,145l243 435c151,286 489,833 669,1133 28,47 57,84 86,136l169 287c49,0 88,-13 125,-19 182,-32 781,-125 931,-125l0 -3783c0,-112 83,-87 -332,-134 -178,-21 -257,-40 -430,-71l-283 -51c0,391 -11,746 -11,1135 0,382 0,764 0,1146 -10,-12 -2,-2 -14,-19 -7,-10 -12,-19 -17,-28l-99 -157c-41,-76 -77,-139 -121,-212 -46,-77 -73,-138 -123,-212 -48,-71 -80,-144 -123,-221 -308,-552 -575,-1123 -800,-1713 -30,-79 -18,-61 -94,-85 -80,-25 -162,-62 -242,-91l-597 -237c-46,-19 -76,-47 -127,-51l-11 1224c0,74 -10,106 -12,166 -14,462 1,949 1,1413 0,946 0,1892 0,2837z"/>
   <path class="fil0" d="M17966 5465l-378 0 0 -723c133,0 324,7 448,-9 48,-6 64,5 108,8 202,14 355,86 355,346 0,137 -69,246 -157,298 -58,35 -279,80 -376,80zm-1390 -1457l0 3604 1012 0 0 -1457c335,0 405,119 546,432 31,71 70,136 102,210l397 837 1145 67 -480 -1110c-9,-20 -20,-36 -31,-58 -43,-82 -142,-235 -209,-303l-84 -83c-48,-40 -162,-99 -230,-115l31 -13c14,-5 22,-7 43,-13 168,-54 338,-145 450,-283 31,-39 63,-82 88,-124 169,-282 155,-427 155,-746 0,-209 -136,-530 -300,-656 -291,-224 -433,-164 -748,-209l-464 9c-159,0 -319,0 -478,0 -91,-1 -140,11 -222,11l-723 0z"/>
   <path class="fil0" d="M8126 7679c72,-17 734,-45 834,-45 102,1 177,-11 289,-11l0 -1479 1390 0 0 -701c0,-26 -8,-34 -34,-34l-1356 0 0 -634c50,1 44,11 100,11l1523 0 0 -778c-476,0 -918,-11 -1390,-11 -395,0 -675,-33 -1023,-33 -103,-1 -230,-23 -333,-23l0 3738z"/>
   <path class="fil0" d="M15242 4831l3 3c0,0 -4,-2 -3,-3zm-3191 122c12,15 13,14 21,34 9,23 10,29 12,55 13,15 13,14 22,34 9,23 9,29 11,55 13,15 14,14 22,34 9,23 10,29 12,55 39,45 52,136 78,189 48,-1 109,-27 144,-44 0,-94 -42,-166 -74,-248l-93 -242c37,-3 103,-25 141,-37 190,-62 406,-104 606,-128l510 -57c68,142 42,162 -4,318 -58,197 -123,406 -66,609 39,139 70,310 133,423 79,141 162,145 189,234 11,39 18,83 24,120 21,128 86,291 164,391 29,36 25,48 27,107 2,58 16,72 27,119 10,42 -89,534 -102,596 -8,35 -23,95 -24,121 -2,40 10,66 11,121 0,134 -68,236 -68,367 -187,0 -362,-1 -545,-44 -85,-20 -155,-35 -240,-60 -38,-12 -68,-24 -107,-37 -251,-89 -472,-220 -680,-377l-167 -144c-1,0 -12,-10 -13,-10 -50,-42 -84,-91 -129,-137 -56,-55 -89,-101 -138,-163 -287,-367 -453,-821 -493,-1309 -45,-554 102,-1037 350,-1450 78,-130 159,-236 253,-348 22,-26 45,-48 70,-75l39 -39c167,-167 351,-304 558,-420 746,-414 1667,-399 2391,4 256,143 469,325 661,540 29,33 40,40 68,77 257,348 432,714 505,1152 113,683 -87,1357 -472,1871 -88,117 -180,215 -285,316l-163 137c-118,88 -232,167 -366,235 -120,61 -95,36 -108,-119 -15,-179 -55,-361 -55,-545 107,25 207,79 323,89 0,80 29,133 66,189 87,-20 134,-16 185,-82 63,-84 71,-55 71,-196 -52,-35 -44,-58 -88,-91 -55,-41 -73,-3 -134,2 -20,-5 -114,-154 -267,-167 1,-69 45,-137 -10,-302 -64,-194 -1,-162 -20,-291 -17,-121 -52,-137 -139,-217 -34,-30 -207,-98 -254,-102 0,-160 -61,-141 54,-280 40,-49 54,-43 58,-132 3,-82 -10,-266 -64,-315 -39,-35 -68,-61 -125,-64 -159,-7 -183,11 -301,90 0,120 -65,154 -50,346 3,34 34,57 50,88 -19,29 -27,46 -44,78 -80,-54 -26,-56 -167,-56 -7,-30 -8,-20 -17,-50 -39,-138 -46,-130 -117,-250 -21,-36 -33,-66 -77,-78 6,-75 53,-119 64,-192 17,-118 -57,-366 12,-466 43,-63 115,-38 124,-143 37,18 310,31 378,33 56,1 126,14 178,22 64,9 121,14 186,26 161,28 338,65 499,112 51,15 109,40 160,29 -36,75 -177,456 -178,501 56,13 87,40 144,44 12,-22 24,-45 32,-68 5,-14 9,-29 14,-42 10,-22 6,-17 21,-34 2,-26 4,-30 9,-47 9,-27 10,-26 24,-42 3,-26 4,-30 9,-47 9,-27 11,-26 25,-42 2,-26 3,-30 9,-47 9,-27 10,-26 24,-42 2,-26 4,-30 9,-47 9,-27 10,-26 25,-42 2,-26 3,-30 9,-47 8,-27 10,-26 24,-42 3,-35 57,-197 89,-234 1,-33 -2,-21 7,-48 7,-21 16,-29 26,-41 1,-42 19,-81 34,-111 -39,-21 -102,-51 -156,-56 -34,71 -61,163 -92,242 -21,53 -82,199 -86,248 -73,-49 -327,-104 -429,-127 -162,-37 -302,-54 -478,-78 -149,-21 -354,-44 -510,-34 -33,3 -64,-14 -91,-33 -32,-23 -42,-87 -216,-29 -49,16 -44,36 -66,78 -115,-55 -935,100 -1147,166 -72,22 -111,23 -143,57 -7,-33 -32,-91 -44,-123 -35,-88 -110,-315 -145,-367 -52,5 -110,33 -144,56 27,116 193,490 200,567zm1679 3382c504,0 953,-154 1371,-397 28,-16 21,-15 46,-32 103,-69 127,-78 237,-174l176 -158c1,-1 4,-4 5,-5 2,-2 4,-4 6,-6 2,-1 4,-4 5,-5 155,-163 291,-334 406,-529 368,-623 459,-1470 206,-2166 -130,-360 -355,-741 -636,-999 -2,-1 -4,-4 -6,-5 -16,-14 -20,-18 -35,-32 -130,-128 -254,-223 -412,-322 -199,-125 -448,-238 -680,-298 -143,-38 -364,-85 -522,-90 -40,-1 -83,3 -123,0 -115,-10 -316,2 -443,24 -61,11 -143,23 -206,40 -507,136 -892,338 -1255,701 -47,47 -76,76 -118,127 -118,146 -209,256 -305,429l-61 117c-78,163 -99,217 -160,397l-87 401c-6,72 -23,146 -22,223 0,135 -9,60 0,223 5,91 3,143 14,230 9,72 19,139 33,212 79,395 225,698 449,1020l107 137c146,156 142,160 306,306 147,131 338,254 514,342 260,130 435,186 733,246 114,22 322,43 457,43z"/>
   <path class="fil1" d="M354 11127c23,-16 34,-25 34,-66l0 -8199c0,-137 -12,-232 -12,-367l-11 0c0,716 -11,1420 -11,2147l0 6485z"/>
   <path class="fil0" d="M11773 4720c27,31 176,449 196,504 22,61 39,116 71,163 59,-5 106,-30 144,-56 -12,-26 -30,-76 -33,-111 -13,-14 -13,-13 -22,-34 -9,-23 -9,-28 -12,-55 -12,-14 -13,-13 -21,-34 -9,-23 -10,-28 -12,-55 -12,-14 -13,-13 -21,-34 -9,-23 -10,-28 -12,-55 -25,-28 -33,-69 -51,-116l-111 -300c-23,-65 -44,-52 -44,-52l-20 -1c-24,4 -19,4 -32,9 -31,12 -42,19 -76,26 2,86 49,124 56,201z"/>
   <path class="fil0" d="M15564 4497c-3,42 -1,19 -10,45 -1,2 -9,19 -11,23 -10,20 -4,10 -12,21 -3,40 -43,126 -60,174l-29 60c-2,26 -4,30 -9,46 -9,27 -10,27 -24,43 -3,26 -4,30 -9,46 -9,27 -11,27 -25,43 -2,26 -3,30 -9,46 -9,27 -10,27 -24,43 -2,26 -4,30 -9,46 -9,27 -10,27 -25,43 -2,26 -3,30 -9,46 -8,27 -10,27 -24,43 -3,43 -10,29 -11,78 50,11 85,39 145,44l282 -741c16,-45 29,-70 40,-115 -33,-23 -40,-23 -85,-39 -55,-19 -42,-21 -82,5z"/>
   <path class="fil0" d="M11773 4720c-43,-50 1,-135 -189,-34 4,49 213,608 244,668 37,-3 117,-32 145,-45 -1,-58 -27,-104 -43,-146 -29,-78 -152,-386 -157,-443z"/>
   <path class="fil0" d="M15464 5298c39,26 86,51 145,56 32,-48 45,-101 65,-157 33,-93 179,-452 179,-500 0,-26 -106,-60 -133,-66 -37,55 -159,404 -194,496 -21,55 -49,116 -62,171z"/>
  </g>
 </g>
</svg>
