<?xml version="1.0" encoding="utf-8"?>
<!-- Generator: Adobe Illustrator 16.0.0, SVG Export Plug-In . SVG Version: 6.00 Build 0)  -->
<!DOCTYPE svg PUBLIC "-//W3C//DTD SVG 1.1//EN" "http://www.w3.org/Graphics/SVG/1.1/DTD/svg11.dtd">
<svg version="1.1" xmlns="http://www.w3.org/2000/svg" xmlns:xlink="http://www.w3.org/1999/xlink" x="0px" y="0px" width="24px"
	 height="24px" viewBox="0 0 24 24" enable-background="new 0 0 24 24" xml:space="preserve">
<g id="Capa_1">
	<path fill="#D50000" d="M20,10c2,3-3,12-5,12s-2-1-3-1s-1,1-3,1s-7-9-5-12s5-3,7-2V5C5.38,8.07,4.11,3.78,4.11,3.78S6.77,0.19,11,5
		V3h2v5C15,7,18,7,20,10z"/>
</g>
<g id="Capa_2">
	<linearGradient id="SVGID_1_" gradientUnits="userSpaceOnUse" x1="2.8257" y1="11.0645" x2="20.1704" y2="14.1228">
		<stop  offset="0.536" style="stop-color:#FFFFFF;stop-opacity:0"/>
		<stop  offset="0.5409" style="stop-color:#2E7D32"/>
	</linearGradient>
	<path fill="url(#SVGID_1_)" d="M20,10c2,3-3,12-5,12s-2-1-3-1s-1,1-3,1s-7-9-5-12s5-3,7-2V5C5.38,8.07,4.11,3.78,4.11,3.78
		S6.77,0.19,11,5V3h2v5C15,7,18,7,20,10z"/>
</g>
</svg>
