<?xml version="1.0" encoding="utf-8"?>
<!-- Generator: Adobe Illustrator 16.0.0, SVG Export Plug-In . SVG Version: 6.00 Build 0)  -->
<!DOCTYPE svg PUBLIC "-//W3C//DTD SVG 1.1//EN" "http://www.w3.org/Graphics/SVG/1.1/DTD/svg11.dtd">
<svg version="1.1" id="Capa_1" xmlns="http://www.w3.org/2000/svg" xmlns:xlink="http://www.w3.org/1999/xlink" x="0px" y="0px"
	 width="24px" height="24px" viewBox="0 0 24 24" enable-background="new 0 0 24 24" xml:space="preserve">
<path d="M12.1,18.55L12,18.65l-0.11-0.101C7.14,14.24,4,11.39,4,8.5C4,6.5,5.5,5,7.5,5c1.54,0,3.04,1,3.57,2.36h1.86
	C13.46,6,14.96,5,16.5,5c2,0,3.5,1.5,3.5,3.5C20,11.39,16.859,14.24,12.1,18.55 M16.5,3c-1.74,0-3.41,0.81-4.5,2.08
	C10.91,3.81,9.24,3,7.5,3C4.42,3,2,5.41,2,8.5c0,3.77,3.4,6.859,8.55,11.53L12,21.35l1.45-1.319C18.6,15.359,22,12.27,22,8.5
	C22,5.41,19.58,3,16.5,3z"/>
<path fill="#D50000" d="M1.813,12.063h3.148l4.863-8.21l1.331,8.96l3.634-4.09l3.759,3.34h3.577v2h-4.514l-2.63-2.33l-5.36,6.061
	l-1.106-7.42l-2.189,3.69H1.813V12.063z"/>
</svg>
