<?xml version="1.0" encoding="utf-8"?>
<!-- Generator: Adobe Illustrator 16.0.0, SVG Export Plug-In . SVG Version: 6.00 Build 0)  -->
<!DOCTYPE svg PUBLIC "-//W3C//DTD SVG 1.1//EN" "http://www.w3.org/Graphics/SVG/1.1/DTD/svg11.dtd">
<svg version="1.1" id="Capa_1" xmlns="http://www.w3.org/2000/svg" xmlns:xlink="http://www.w3.org/1999/xlink" x="0px" y="0px"
	 width="24px" height="24px" viewBox="0 0 24 24" enable-background="new 0 0 24 24" xml:space="preserve">
<path fill="#FFFFFF" d="M12,15.5c-1.93,0-3.5-1.57-3.5-3.5c0-1.93,1.57-3.5,3.5-3.5c1.93,0,3.5,1.57,3.5,3.5
	C15.5,13.93,13.93,15.5,12,15.5 M19.43,12.97c0.041-0.319,0.07-0.64,0.07-0.97s-0.029-0.66-0.07-1l2.11-1.63
	c0.19-0.15,0.239-0.42,0.12-0.64l-2-3.46c-0.12-0.22-0.391-0.31-0.61-0.22l-2.489,1C16.04,5.66,15.5,5.32,14.87,5.07L14.5,2.42
	C14.46,2.18,14.25,2,14,2h-4C9.75,2,9.54,2.18,9.5,2.42L9.13,5.07C8.5,5.32,7.96,5.66,7.44,6.05l-2.49-1
	c-0.22-0.09-0.49,0-0.61,0.22l-2,3.46C2.21,8.95,2.27,9.22,2.46,9.37L4.57,11c-0.04,0.34-0.07,0.67-0.07,1s0.03,0.65,0.07,0.97
	l-2.11,1.66c-0.19,0.15-0.25,0.42-0.12,0.64l2,3.461c0.12,0.22,0.39,0.3,0.61,0.22l2.49-1.011c0.52,0.4,1.06,0.74,1.69,0.99
	l0.37,2.65C9.54,21.82,9.75,22,10,22h4c0.25,0,0.46-0.18,0.5-0.42l0.37-2.65c0.63-0.26,1.17-0.59,1.69-0.99l2.489,1.011
	c0.22,0.08,0.49,0,0.61-0.22l2-3.461c0.119-0.22,0.07-0.489-0.12-0.64L19.43,12.97z"/>
</svg>
